PathFileType	4	(X/Y/Z)	/Users/itak/Documents/Research/Walk-IL/dataset/trc/00284_00010.trc
DataRate	CameraRate	NumFrames	NumMarkers	Units	OrigDataRate	OrigDataStartFrame	OrigNumFrames
100.000000	100.000000	4	54	mm	100.000000	156	626
Frame#	Time	RPSI			LPSI			L3			STRN			T10			C7			CLAV			RBAK			LBAK			LSHO			LUPA			LAEL			LAOL			LWTS			LWPS			LFRA			LIFD			LHPS			LHTS			RSHO			RUPA			RAEL			RAOL			RWTS			RWPS			RFRA			RIFD			RHTS			RHPS			RBHD			LFHD			RFHD			LBHD			LHIP			RASI			LASI			LKNE			LTHI			LANK			LTIP			LTOE			LMT1			LMT5			LHEE			RKNE			RANK			RTIP			RTOE			RMT5			RHEE			RMT1			RTHI			RHIP			*53			
		X1	Y1	Z1	X2	Y2	Z2	X3	Y3	Z3	X4	Y4	Z4	X5	Y5	Z5	X6	Y6	Z6	X7	Y7	Z7	X8	Y8	Z8	X9	Y9	Z9	X10	Y10	Z10	X11	Y11	Z11	X12	Y12	Z12	X13	Y13	Z13	X14	Y14	Z14	X15	Y15	Z15	X16	Y16	Z16	X17	Y17	Z17	X18	Y18	Z18	X19	Y19	Z19	X20	Y20	Z20	X21	Y21	Z21	X22	Y22	Z22	X23	Y23	Z23	X24	Y24	Z24	X25	Y25	Z25	X26	Y26	Z26	X27	Y27	Z27	X28	Y28	Z28	X29	Y29	Z29	X30	Y30	Z30	X31	Y31	Z31	X32	Y32	Z32	X33	Y33	Z33	X34	Y34	Z34	X35	Y35	Z35	X36	Y36	Z36	X37	Y37	Z37	X38	Y38	Z38	X39	Y39	Z39	X40	Y40	Z40	X41	Y41	Z41	X42	Y42	Z42	X43	Y43	Z43	X44	Y44	Z44	X45	Y45	Z45	X46	Y46	Z46	X47	Y47	Z47	X48	Y48	Z48	X49	Y49	Z49	X50	Y50	Z50	X51	Y51	Z51	X52	Y52	Z52	X53	Y53	Z53	X54	Y54	Z54	

157	1.56	968.0105590820312	990.5606689453125	679.28466796875	804.6656494140625	956.202880859375	624.8304443359375	891.5623779296875	1046.373901367188	634.517333984375	944.0736694335938	1213.702758789062	378.9554443359375	887.5421142578125	1169.138427734375	643.7891235351562	882.3358154296875	1409.61474609375	575.3992919921875	924.82177734375	1315.623291015625	433.8822021484375	944.0936279296875	1279.021240234375	656.3001708984375	777.5449829101562	1372.615112304688	569.5635986328125	747.0578002929688	1372.017456054688	468.8695983886719	661.005615234375	1265.677001953125	503.1000366210938	631.4811401367188	1067.101196289062	536.8887939453125	682.55322265625	1064.2265625	609.2376708984375	680.5597534179688	834.7633666992188	500.1239013671875	612.3995971679688	829.3755493164062	526.1768798828125	618.2222290039062	962.2721557617188	538.2561645507812	671.4533081054688	648.3896484375	523.8478393554688	611.9944458007812	741.9021606445312	535.0266723632812	658.4702758789062	734.71240234375	488.3858947753906	1050.993408203125	1385.297973632812	550.6599731445312	1116.99609375	1333.0390625	577.8903198242188	1209.996459960938	1075.484375	582.5912475585938	1120.290893554688	1046.721557617188	587.7196044921875	1231.725341796875	927.9060668945312	385.9748840332031	1288.669555664062	901.249755859375	445.9965515136719	1241.773681640625	1021.949645996094	545.4027709960938	1283.587158203125	772.4058227539062	295.1452331542969	1288.399780273438	846.294189453125	314.6028747558594	1320.576904296875	823.1332397460938	373.3493347167969	972.4534912109375	1573.937622070312	523.00390625	865.3316650390625	1564.294311523438	338.3852233886719	957.831298828125	1567.191284179688	347.0552673339844	826.1818237304688	1560.633422851562	510.5363159179688	739.62548828125	903.1314697265625	527.9845581054688	1072.488891601562	941.2908325195312	483.2983703613281	830.9296264648438	922.7970581054688	416.2847290039062	877.0070190429688	494.9200744628906	296.8445434570312	825.2142944335938	617.3448486328125	360.2740478515625	875.1104125976562	107.0055770874023	532.633544921875	871.6507568359375	286.3182678222656	402.3621520996094	1019.697021484375	40.36528015136719	394.4673767089844	1021.058044433594	53.49276351928711	472.2838439941406	919.0665283203125	57.72932815551758	429.127197265625	907.1910400390625	125.0542678833008	598.252197265625	1114.266357421875	473.6473693847656	593.932861328125	1091.971801757812	40.3476676940918	726.0072021484375	1109.915161132812	346.4356689453125	599.214111328125	1090.085327148438	32.78287124633789	523.1642456054688	1135.55029296875	26.0013427734375	632.4607543945312	1030.56201171875	38.986083984375	765.9743041992188	1035.737670898438	33.27811431884766	570.09326171875	1130.974853515625	739.068115234375	566.6826782226562	1101.6494140625	950.705810546875	617.5363159179688	nan	nan	nan	
158	1.57	970.4575805664062	990.2151489257812	670.9775390625	806.9227294921875	956.0667724609375	617.5044555664062	894.5526733398438	1046.457641601562	626.7238159179688	943.9248046875	1213.035766601562	370.49169921875	891.0728759765625	1168.840942382812	636.1992797851562	885.0963745117188	1409.278442382812	567.6428833007812	925.2667846679688	1314.878173828125	425.2839965820312	948.0342407226562	1278.753051757812	647.5870361328125	780.2288208007812	1372.116455078125	563.3375854492188	747.9667358398438	1371.30859375	463.1162719726562	662.5737915039062	1265.457641601562	500.0293884277344	633.1644897460938	1067.507446289062	536.2001342773438	686.527099609375	1064.723876953125	607.1167602539062	680.345947265625	835.0350341796875	497.8193054199219	613.028564453125	829.841064453125	525.83984375	619.55908203125	962.7791748046875	537.9617919921875	671.72314453125	648.8062744140625	521.6831665039062	612.7064819335938	742.3551025390625	534.6632080078125	657.744873046875	735.0881958007812	486.58740234375	1053.09228515625	1384.99560546875	540.16845703125	1119.584594726562	1332.751708984375	566.2140502929688	1214.321166992188	1075.768432617188	565.7122802734375	1125.053833007812	1046.053833007812	571.5232543945312	1234.163940429688	935.8532104492188	363.6481018066406	1292.377197265625	907.5447998046875	421.651123046875	1245.95654296875	1023.943359375	526.4134521484375	1285.959106445312	784.5615844726562	266.0199584960938	1290.3388671875	857.705078125	288.1679077148438	1323.788208007812	832.6342163085938	345.4484252929688	974.0595703125	1573.416015625	513.0609130859375	864.5551147460938	1563.091186523438	329.9429626464844	957.1367797851562	1566.00830078125	337.3653564453125	827.7085571289062	1560.106689453125	502.6100463867188	741.2816772460938	903.3504638671875	520.9676513671875	1074.33837890625	941.0932006835938	474.0945739746094	832.2249755859375	922.6742553710938	408.9856872558594	875.9984130859375	497.622802734375	285.0958557128906	824.0171508789062	619.0466918945312	350.5672302246094	884.9180908203125	96.21278381347656	498.6105651855469	875.508056640625	282.9414672851562	379.7643737792969	1026.23046875	40.88570022583008	352.6572570800781	1029.562744140625	48.80710601806641	431.1049194335938	926.3861083984375	54.44964599609375	391.0222778320312	918.3294677734375	110.7406463623047	564.4837036132812	1114.640869140625	473.1177062988281	591.8474731445312	1091.723388671875	40.64095306396484	725.9816284179688	1109.905151367188	346.1294860839844	598.1351318359375	1090.130737304688	32.83378601074219	523.1260375976562	1135.494995117188	26.0646800994873	632.4121704101562	1030.377563476562	39.12403869628906	765.9852294921875	1035.679077148438	33.18982696533203	570.0381469726562	1132.078491210938	737.9911499023438	560.1242065429688	1103.671142578125	949.9067993164062	608.6873779296875	nan	nan	nan	
159	1.58	972.7914428710938	989.74658203125	662.501220703125	809.1137084960938	955.7346801757812	609.9736328125	897.39404296875	1046.405517578125	618.845703125	943.866455078125	1212.23388671875	361.9734497070312	894.3984375	1168.345947265625	628.37890625	887.6066284179688	1408.738647460938	559.7536010742188	925.6361083984375	1313.922729492188	416.7065734863281	951.7097778320312	1278.295654296875	638.783203125	782.7129516601562	1371.442626953125	556.9046020507812	748.8381958007812	1370.381591796875	457.1022033691406	664.17578125	1264.990112304688	496.4942321777344	635.0487670898438	1067.672973632812	535.0257568359375	690.4935302734375	1064.995971679688	604.5379028320312	680.3565673828125	835.0540161132812	495.4466857910156	613.8843383789062	830.080078125	525.2371826171875	621.1202392578125	963.0601806640625	537.2938232421875	672.136962890625	648.9795532226562	519.5977172851562	613.56640625	742.5914916992188	534.08935546875	657.2919311523438	735.1668090820312	484.7765808105469	1054.964965820312	1384.575561523438	529.747314453125	1121.926635742188	1332.363037109375	554.6270751953125	1218.153564453125	1075.971435546875	548.9187622070312	1129.309814453125	1045.40380859375	555.3894653320312	1235.948364257812	943.8756103515625	341.744140625	1295.345825195312	914.0147705078125	397.6553955078125	1249.557983398438	1025.9296875	507.608642578125	1287.486206054688	797.15234375	237.4125518798828	1291.547119140625	869.4323120117188	262.2870788574219	1326.175415039062	842.45458984375	318.0226135253906	975.4285888671875	1572.745239257812	503.1917724609375	863.6417236328125	1561.820190429688	321.5620727539062	956.283935546875	1564.767944335938	327.7760620117188	829.0064086914062	1559.412353515625	494.6924133300781	742.8699340820312	903.3184814453125	513.797119140625	1076.060180664062	940.7991943359375	464.7180786132812	833.3919067382812	922.3245239257812	401.508544921875	874.7477416992188	499.7159729003906	274.198974609375	822.6115112304688	620.2359619140625	341.2751159667969	893.6430053710938	86.03113555908203	463.4717712402344	878.5785522460938	279.6961059570312	357.20703125	1031.2265625	42.14809799194336	310.5306091308594	1036.609375	44.87355422973633	389.2250671386719	932.34130859375	51.89225006103516	352.3171691894531	928.3851318359375	96.95144653320312	529.2893676757812	1114.86279296875	472.6509399414062	589.7947998046875	1091.44580078125	40.96116638183594	725.9512329101562	1109.847290039062	345.8837280273438	597.1482543945312	1090.178955078125	32.89369201660156	523.09375	1135.44287109375	26.12913131713867	632.3616333007812	1030.160522460938	39.29632186889648	765.9601440429688	1035.63427734375	33.11813735961914	569.981201171875	1133.089111328125	736.86328125	553.4635620117188	1105.600952148438	949.0289306640625	599.6522216796875	nan	nan	nan	
160	1.59	975.0338134765625	989.1500854492188	653.8382568359375	811.2388305664062	955.18994140625	602.2561645507812	900.078125	1046.149169921875	610.8517456054688	943.8836059570312	1211.307250976562	353.3704833984375	897.5339965820312	1167.645629882812	620.3193969726562	889.8536987304688	1407.98388671875	551.7192993164062	925.9298706054688	1312.787109375	408.1451721191406	955.123046875	1277.661010742188	629.921875	784.9959716796875	1370.584106445312	550.2823486328125	749.6541748046875	1369.243408203125	450.8435974121094	665.7765502929688	1264.27490234375	492.4810485839844	637.1122436523438	1067.59130859375	533.34619140625	694.4159545898438	1065.03759765625	601.4906616210938	680.5938110351562	834.810546875	492.9816589355469	614.945068359375	830.073486328125	524.3961181640625	622.8783569335938	963.0963134765625	536.2412719726562	672.6985473632812	648.87744140625	517.551513671875	614.5634765625	742.5916748046875	533.3228759765625	657.093017578125	734.9507446289062	482.93408203125	1056.617065429688	1384.022705078125	519.386474609375	1124.02734375	1331.857299804688	543.114990234375	1221.52099609375	1076.076293945312	532.2183227539062	1133.098510742188	1044.780029296875	539.3922729492188	1237.084716796875	951.8892211914062	320.3173217773438	1297.598022460938	920.6084594726562	374.0537414550781	1252.608032226562	1027.880249023438	489.012939453125	1288.166137695312	810.1040649414062	209.395751953125	1292.026733398438	881.40478515625	237.0203399658203	1327.750732421875	852.5296630859375	291.1268005371094	976.5718994140625	1571.915161132812	493.3964233398438	862.5972900390625	1560.470458984375	313.2335815429688	955.2841186523438	1563.455200195312	318.2807312011719	830.0900268554688	1558.544921875	486.7804870605469	744.3883666992188	903.0155639648438	506.4655456542969	1077.60498046875	940.3026123046875	455.2095336914062	834.40771484375	921.7421264648438	393.8419799804688	873.333984375	501.1453247070312	264.1271667480469	821.0648803710938	620.8865966796875	332.3858337402344	901.2025756835938	76.65634155273438	427.3892211914062	880.9046020507812	276.6069946289062	334.7693176269531	1034.705932617188	44.20405578613281	268.2944641113281	1042.177978515625	41.8323974609375	346.8530883789062	936.923828125	50.15530776977539	313.2194213867188	937.3008422851562	83.93049621582031	492.8049011230469	1114.952392578125	472.2476806640625	587.7401123046875	1091.158569335938	41.30005264282227	725.9141235351562	1109.74853515625	345.689697265625	596.2182006835938	1090.226440429688	32.95271301269531	523.0848999023438	1135.39697265625	26.18828582763672	632.3128662109375	1029.922729492188	39.52322387695312	765.905029296875	1035.605102539062	33.06438064575195	569.9214477539062	1134.017944335938	735.6893920898438	546.6843872070312	1107.450073242188	948.0775756835938	590.4046630859375	nan	nan	nan	
